<svg width="79" height="75" viewBox="0 0 79 75" fill="none" xmlns="http://www.w3.org/2000/svg">
<g id="Group">
<path id="Vector" d="M77.8908 0.232856C77.7667 0.108701 77.5184 0.108701 77.2701 0.232856L52.0666 11.0343L26.8633 0.232856H26.7391H26.615H26.4908H26.3667L1.03912 11.0343C0.790815 11.1585 0.666656 11.4068 0.666656 11.5309V73.4841C0.666656 73.7324 0.790807 73.8565 0.914962 73.9807C1.03912 74.1048 1.16327 74.1048 1.28743 74.1048C1.41158 74.1048 1.41158 74.1048 1.53573 74.1048L26.7391 63.4275L51.9425 74.1048C52.0666 74.1048 52.0667 74.1048 52.1908 74.1048C52.1908 74.1048 52.1908 74.1048 52.315 74.1048C52.315 74.1048 52.315 74.1048 52.4391 74.1048C52.5633 74.1048 52.5633 74.1048 52.6874 74.1048L78.015 63.3034C78.2633 63.1792 78.3874 62.9309 78.3874 62.8068V0.729474C78.2633 0.481165 78.1391 0.357011 77.8908 0.232856ZM51.4459 72.615L27.2357 62.3101V59.8271C27.2357 59.4546 26.9874 59.2063 26.615 59.2063C26.2425 59.2063 25.9942 59.4546 25.9942 59.8271V62.3101L1.9082 72.615V11.9034L26.1183 1.59856V11.0343C26.1183 11.4068 26.3667 11.6551 26.7391 11.6551C27.1116 11.6551 27.3599 11.4068 27.3599 11.0343V1.59856L51.57 11.9034V72.615H51.4459ZM77.0217 62.3101L52.8116 72.615V11.9034L77.0217 1.59856V62.3101Z" fill="#231F20"/>
<path id="Vector_2" d="M26.7391 52.9986C26.3667 52.9986 26.1184 53.2469 26.1184 53.6193V58.0889C26.1184 58.4614 26.3667 58.7097 26.7391 58.7097C27.1116 58.7097 27.3599 58.4614 27.3599 58.0889V53.6193C27.3599 53.2469 26.9874 52.9986 26.7391 52.9986Z" fill="#231F20"/>
<path id="Vector_3" d="M19.7865 26.3053C19.7865 30.03 22.8903 33.0097 26.7391 33.0097C30.5879 33.0097 33.6918 30.03 33.6918 26.3053C33.6918 22.5807 30.5879 19.601 26.7391 19.601C22.8903 19.601 19.7865 22.7048 19.7865 26.3053ZM32.3261 26.3053C32.3261 29.285 29.7188 31.7681 26.615 31.7681C23.5111 31.7681 20.9039 29.285 20.9039 26.3053C20.9039 23.3256 23.5111 20.8425 26.615 20.8425C29.843 20.8425 32.3261 23.3256 32.3261 26.3053Z" fill="#231F20"/>
<path id="Vector_4" d="M12.213 26.3053C12.213 33.7546 25.6217 50.8879 26.1184 51.6328C26.2425 51.757 26.3667 51.8812 26.615 51.8812C26.8633 51.8812 26.9874 51.757 27.1116 51.6328C27.7324 50.8879 41.0169 33.8787 41.0169 26.3053C41.0169 18.6077 34.5609 12.4 26.615 12.4C18.6691 12.4 12.213 18.6077 12.213 26.3053ZM39.8995 26.3053C39.8995 32.6372 29.0981 47.0391 26.615 50.2671C24.256 47.1633 13.3304 32.6372 13.3304 26.3053C13.3304 19.2285 19.2898 13.5174 26.615 13.5174C33.9401 13.6415 39.8995 19.3527 39.8995 26.3053Z" fill="#231F20"/>
</g>
</svg>
